<?xml version="1.0" standalone="no"?>
<!DOCTYPE svg PUBLIC "-//W3C//DTD SVG 1.1//EN" "http://www.w3.org/Graphics/SVG/1.1/DTD/svg11.dtd">
<svg xmlns="http://www.w3.org/2000/svg"
     id="Layer_1"
     data-name="Layer 1"
     viewBox="138.1 225 2361.4 490"
>
<defs>
    <style>
      .cls-1 {
        fill: none;
      }

      .cls-2 {
        fill: #fff;
      }

      .cls-3 {
        fill: #fff;
      }
    </style>
  </defs>
  <g>
    <g>
      <path class="cls-1" d="M1542.35,463.53l105.93,43.88c.42-.67.85-1.33,1.31-1.97l-81.06-81.06c-10.67,11.51-19.54,24.71-26.18,39.15Z"/>
      <path class="cls-1" d="M1657.5,553.81l-9.02,9.02c2.19.88,4.4,1.81,6.64,2.78l4.34-10.49c-.67-.42-1.32-.86-1.96-1.32Z"/>
      <path class="cls-1" d="M1643.56,531.32h-114.64c.29,7.79,1.18,15.43,2.63,22.87,18.17-6.15,42.43-9.65,72.86-4.27l39.58-16.39c-.17-.73-.31-1.46-.43-2.2Z"/>
      <path class="cls-1" d="M1648.27,543.9l-24.96,10.34c4.43,1.23,8.97,2.65,13.63,4.27l12.64-12.64c-.46-.64-.9-1.3-1.31-1.97Z"/>
      <path class="cls-1" d="M1528.92,520.1h114.62c.13-.78.28-1.56.45-2.32l-105.94-43.88c-5.36,14.47-8.54,30.01-9.13,46.2Z"/>
      <path class="cls-1" d="M1787.03,424.29l-81.05,81.05c.46.64.9,1.29,1.32,1.96l105.94-43.88c-6.64-14.44-15.53-27.63-26.21-39.13Z"/>
      <path class="cls-1" d="M1686.49,376.9v112.99l43.08-104c-13.54-5.02-28.01-8.12-43.08-8.99Z"/>
      <path class="cls-1" d="M1711.61,517.66c.19.8.35,1.61.48,2.44h114.62c-.59-16.24-3.79-31.81-9.18-46.31l-105.93,43.88Z"/>
      <path class="cls-1" d="M1576.46,416.44l81.05,81.05c.64-.46,1.29-.9,1.96-1.32l-43.88-105.94c-14.44,6.64-27.63,15.53-39.13,26.21Z"/>
      <path class="cls-1" d="M1669.14,490.2v-113.3c-15.11.87-29.62,3.99-43.19,9.03l43.19,104.27Z"/>
      <path class="cls-1" d="M1711.61,533.64l105.93,43.88c5.37-14.47,8.57-30,9.17-46.19h-114.64c-.13.78-.28,1.56-.46,2.32Z"/>
      <path class="cls-1" d="M1696.06,555.19l14.37,34.69c10.81,3.65,21.22,6.28,31.5,7.9l-43.9-43.9c-.64.46-1.3.9-1.97,1.31Z"/>
      <path class="cls-1" d="M1686.49,580.46c3.24,1.44,6.43,2.8,9.58,4.08l-9.58-23.12v19.05Z"/>
      <path class="cls-1" d="M1739.94,390.18l-43.88,105.93c.67.42,1.33.85,1.97,1.31l81.06-81.06c-11.51-10.67-24.71-19.54-39.15-26.18Z"/>
      <path class="cls-1" d="M1707.3,544c-.42.67-.86,1.32-1.32,1.96l53.61,53.61c16.44.73,32.95-1.14,50.65-5.55,1.04-2.02,2.05-4.06,3-6.14l-105.94-43.88Z"/>
      <path class="cls-1" d="M1665.33,570.29c1.26.61,2.53,1.23,3.81,1.86v-11.05l-3.81,9.19Z"/>
      <path class="cls-3" d="M1875.9,522.35c0-1.31-1.07-2.38-2.38-2.38h-4.75c-.27,0-.53.05-.78.13h-18.65c-.61-19.3-4.41-37.79-10.89-54.98l15.7-6.5,6.99,16.87c.5,1.21,1.9,1.79,3.11,1.29l4.39-1.82c1.21-.5,1.79-1.9,1.29-3.11l-10.38-25.05c-.5-1.21-1.9-1.79-3.11-1.29l-4.39,1.82c-.08.03-.16.07-.24.11l-17.67,7.32c-7.81-17.19-18.37-32.87-31.12-46.47l12.05-12.05,12.91,12.91c.93.93,2.44.93,3.37,0l3.36-3.36c.93-.93.93-2.44,0-3.37l-19.17-19.17c-.93-.93-2.44-.93-3.37,0l-3.36,3.36c-.06.06-.12.13-.17.2l-13.55,13.55c-13.61-12.74-29.29-23.29-46.49-31.09l6.51-15.71,16.87,6.99c1.21.5,2.61-.08,3.11-1.29l1.82-4.39c.5-1.21-.08-2.61-1.29-3.11l-25.05-10.38c-1.21-.5-2.61.08-3.11,1.29l-1.82,4.39c-.03.08-.06.16-.09.25l-7.32,17.67c-16.22-6.1-33.61-9.82-51.74-10.72v-32.69h19.3c1.31,0,2.38-1.07,2.38-2.38v-12.58c0-1.31-1.07-2.38-2.38-2.38h-19.3v-23.81c0-1.31-1.07-2.38-2.38-2.38h-12.58c-1.31,0-2.38,1.07-2.38,2.38v23.81h-19.3c-1.31,0-2.38,1.07-2.38,2.38v12.58c0,1.31,1.07,2.38,2.38,2.38h19.3v32.69c-18.17.9-35.6,4.64-51.85,10.76l-6.5-15.7,16.87-6.99c1.21-.5,1.79-1.9,1.29-3.11l-1.82-4.39c-.5-1.21-1.9-1.79-3.11-1.29l-25.05,10.38c-1.21.5-1.79,1.9-1.29,3.11l1.82,4.39c.03.08.07.16.11.24l7.32,17.67c-17.19,7.81-32.87,18.37-46.47,31.12l-12.05-12.05,12.91-12.91c.93-.93.93-2.44,0-3.37l-3.36-3.36c-.93-.93-2.44-.93-3.37,0l-19.17,19.17c-.93.93-.93,2.44,0,3.37l3.36,3.36c.06.06.13.12.2.17l13.55,13.55c-12.74,13.61-23.29,29.29-31.09,46.49l-15.71-6.51,6.99-16.87c.5-1.21-.08-2.61-1.29-3.11l-4.39-1.82c-1.21-.5-2.61.08-3.11,1.29l-10.38,25.05c-.5,1.21.08,2.61,1.29,3.11l4.39,1.82c.08.03.16.06.25.09l17.67,7.32c-6.45,17.15-10.24,35.61-10.85,54.87h-17.04s0-18.26,0-18.26c0-1.31-1.07-2.38-2.38-2.38h-4.75c-1.31,0-2.38,1.07-2.38,2.38v27.12c0,1.31,1.07,2.38,2.38,2.38h4.75c.09,0,.18,0,.26-.02h19.17c.36,11.09,1.77,21.91,4.14,32.37,5.77-3.32,12.8-6.69,21.12-9.5-1.44-7.44-2.34-15.08-2.63-22.87h114.64c.12.74.27,1.48.43,2.2l-39.58,16.39c6.06,1.07,12.36,2.49,18.9,4.32l24.96-10.34c.42.67.85,1.33,1.31,1.97l-12.64,12.64c3.77,1.31,7.62,2.75,11.54,4.33l9.02-9.02c.64.46,1.29.9,1.96,1.32l-4.34,10.49c3.35,1.46,6.76,3.01,10.21,4.67l3.81-9.19v11.05c1.52.76,3.05,1.53,4.59,2.33,4.34,2.13,8.59,4.12,12.76,5.97v-19.05l9.58,23.12c4.88,1.98,9.66,3.76,14.37,5.35l-14.37-34.69c.67-.42,1.33-.85,1.97-1.31l43.9,43.9c5.91.93,11.78,1.52,17.66,1.78l-53.61-53.61c.46-.64.9-1.29,1.32-1.96l105.94,43.88c-.95,2.07-1.96,4.12-3,6.14,9.16-2.28,18.65-5.25,28.61-8.89,6.23-16.85,9.88-34.94,10.5-53.81h17.04v18.14c0,1.31,1.07,2.38,2.38,2.38h4.75c1.31,0,2.38-1.07,2.38-2.38v-27.12ZM1643.54,520.1h-114.62c.59-16.19,3.77-31.73,9.13-46.2l105.94,43.88c-.18.76-.33,1.54-.45,2.32ZM1648.27,507.4l-105.93-43.88c6.63-14.44,15.51-27.64,26.18-39.15l81.06,81.06c-.46.64-.9,1.3-1.31,1.97ZM1657.5,497.49l-81.05-81.05c11.5-10.68,24.69-19.56,39.13-26.21l43.88,105.94c-.67.42-1.32.86-1.96,1.32ZM1669.14,490.2l-43.19-104.27c13.57-5.04,28.08-8.16,43.19-9.03v113.3ZM1686.49,489.89v-112.99c15.07.87,29.54,3.97,43.08,8.99l-43.08,104ZM1698.03,497.41c-.64-.46-1.3-.9-1.97-1.31l43.88-105.93c14.44,6.63,27.64,15.51,39.15,26.18l-81.06,81.06ZM1707.3,507.3c-.42-.67-.86-1.32-1.32-1.96l81.05-81.05c10.68,11.5,19.56,24.69,26.21,39.13l-105.94,43.88ZM1817.54,577.51l-105.93-43.88c.18-.76.33-1.54.46-2.32h114.64c-.61,16.19-3.8,31.72-9.17,46.19ZM1712.09,520.1c-.13-.82-.29-1.64-.48-2.44l105.93-43.88c5.39,14.51,8.58,30.08,9.18,46.31h-114.62Z"/>
    </g>
    <path class="cls-2" d="M1869.4,591.57c0,.3-.19.69-.42.86-14.38,10.87-28.9,20.66-45,28.06-12.66,5.91-26.43,10-40.2,12.49-29.02,5.55-59.13,3.61-87.44-4.41-19.12-5.24-37.22-13.24-55.01-22.12-16.41-8.06-32.2-17.42-49.6-23.1-36.05-11.84-67.73-3.53-100.2,14.69-8.01,4.28-5.6.73-1.47-3.29,2.39-2.31,4.93-4.45,7.55-6.49,13.56-10.49,29.05-18.63,45.03-22.56,30.26-6.81,62.9-.04,91.28,11.84,24.35,10.19,47.89,23.26,73.08,30.81,27.6,7.95,57.18,9.32,85.65,5.79,26.18-3.84,51.4-13.47,75.93-23.18.4-.16.83.15.83.6h0Z"/>
    <path class="cls-2" d="M1864.02,613.73c.14-.24-.19-.63-.53-.37-2.28,1.71-21.29,15.58-39.51,23.18-12.89,5.38-26.43,10-40.2,12.49-29.02,5.55-59.13,3.61-87.44-4.41-19.12-5.24-37.22-13.24-55.01-22.12-16.41-8.06-39.37-19.59-56.78-25.27-35.23-11.57-67.79-3.04-94.26,19.34-.67.57,0,1.63.8,1.26,14.94-6.96,47.18-21.47,95.37.27,30.51,13.76,74.75,38.26,100.04,45.47,82.03,23.36,152.42-8.02,177.53-49.83Z"/>
  </g>
  <g>
    <polygon class="cls-2" points="332.86 520.8 324.26 520.8 208.04 258.49 138.1 258.49 138.1 651.69 186.52 651.69 186.52 326.93 294.12 570.35 358.69 570.35 466.3 325.76 466.3 651.69 519.02 651.69 519.02 258.49 448.54 258.49 332.86 520.8"/>
    <path class="cls-2" d="M627.17,317.74c11.47,0,19.99-3.05,25.56-9.16,5.56-6.1,8.34-13.82,8.34-23.16s-2.78-17.05-8.34-23.16c-5.57-6.1-14.08-9.16-25.56-9.16s-20,3.06-25.56,9.16c-5.57,6.11-8.34,13.83-8.34,23.16s2.77,17.06,8.34,23.16c5.56,6.11,14.07,9.16,25.56,9.16Z"/>
    <polygon class="cls-2" points="568.52 364.06 568.52 404.99 612.64 404.99 612.64 651.69 664.29 651.69 664.29 404.99 664.29 364.06 612.64 364.06 568.52 364.06"/>
    <polygon class="cls-2" points="700.88 258.49 700.88 299.42 740.69 299.42 740.69 651.69 792.34 651.69 792.34 299.42 792.34 258.49 740.69 258.49 700.88 258.49"/>
    <polygon class="cls-2" points="827.85 258.49 827.85 299.42 867.66 299.42 867.66 651.69 919.32 651.69 919.32 299.42 919.32 258.49 867.66 258.49 827.85 258.49"/>
    <path class="cls-2" d="M1246.97,397.72c-12.2-13.47-26.73-24.05-43.58-31.78-16.86-7.72-35.51-11.58-55.96-11.58-21.88,0-41.88,4.76-59.99,14.27-18.12,9.52-32.74,24.15-43.85,43.9-.18.32-.36.65-.54.98v-155.02h-51.65v393.2h40.89v-59.01c1.18,2.59,2.44,5.11,3.77,7.57,10.76,19.93,25.37,35.1,43.85,45.51,18.47,10.41,39.55,15.62,63.22,15.62,21.16,0,40.44-3.96,57.84-11.85,17.39-7.89,32.37-18.76,44.93-32.59,12.55-13.82,22.14-29.71,28.78-47.67,6.63-17.95,9.95-37.17,9.95-57.63v-9.7c0-20.47-3.23-39.59-9.68-57.36-6.46-17.77-15.79-33.39-27.98-46.86ZM1221.15,563.62c-7.89,16.34-19.02,29.18-33.36,38.51-14.35,9.34-31.21,14-50.57,14-16.86,0-32.64-3.77-47.35-11.31-14.71-7.54-26.55-18.31-35.51-32.32-8.97-14-13.45-30.88-13.45-50.63v-24.78c0-20.47,4.39-37.97,13.18-52.52,8.79-14.54,20.53-25.67,35.24-33.39,14.7-7.72,30.67-11.58,47.88-11.58,19.01,0,35.69,4.4,50.04,13.2,14.34,8.8,25.56,21.28,33.63,37.43,8.07,16.16,12.11,35.01,12.11,56.56s-3.95,40.49-11.84,56.83Z"/>
    <path class="cls-2" d="M1401.66,390.18c-13.33,14.12-21.85,34.08-25.56,59.88v-86h-40.89v287.63h51.65v-155.66c0-28.72,7.71-50.72,23.14-65.98,15.42-15.26,37.48-22.89,66.18-22.89h18.29v-46.32h-9.68c-36.95,0-64.66,9.79-83.13,29.36Z"/>
    <path class="cls-2" d="M2169.61,400.95c-13.27-14.18-29.42-25.49-48.42-33.93-19.02-8.43-40.71-12.66-65.1-12.66s-46.09,4.22-65.1,12.66c-19.02,8.44-35.16,19.75-48.42,33.93-13.27,14.19-23.32,30.16-30.13,47.94-6.82,17.78-10.22,35.82-10.22,54.13v9.7c0,18.31,3.31,36.27,9.95,53.86,6.63,17.6,16.49,33.49,29.59,47.67,13.09,14.19,29.14,25.58,48.15,34.2,19.01,8.62,41.07,12.93,66.18,12.93s47.16-4.31,66.18-12.93c19.01-8.62,35.06-20.01,48.15-34.2,13.09-14.18,22.95-30.07,29.59-47.67,6.63-17.59,9.95-35.55,9.95-53.86v-9.7c0-18.31-3.41-36.36-10.22-54.13-6.82-17.77-16.86-33.75-30.13-47.94ZM2146.21,562.27c-8.07,16.16-19.73,29-34.97,38.51-15.25,9.52-33.63,14.27-55.15,14.27s-39.91-4.76-55.15-14.27c-15.25-9.51-26.9-22.35-34.97-38.51-8.07-16.16-12.11-34.29-12.11-54.4s4.12-38.78,12.37-54.94c8.25-16.16,20.08-28.9,35.51-38.24,15.42-9.33,33.53-14,54.34-14s39.36,4.67,54.61,14c15.24,9.34,26.99,22.08,35.24,38.24,8.25,16.16,12.37,34.47,12.37,54.94s-4.04,38.24-12.11,54.4Z"/>
    <polygon class="cls-2" points="2364.48 486.87 2470.45 364.06 2416.11 364.06 2293.44 506.92 2293.44 258.49 2241.78 258.49 2241.78 651.69 2293.44 651.69 2293.44 517.57 2331.64 517.57 2439.78 651.69 2499.5 651.69 2364.48 486.87"/>
  </g>
</svg>
