<?xml version="1.0" standalone="no"?>
<!DOCTYPE svg PUBLIC "-//W3C//DTD SVG 1.1//EN" "http://www.w3.org/Graphics/SVG/1.1/DTD/svg11.dtd">
<svg xmlns="http://www.w3.org/2000/svg" id="Layer_1" data-name="Layer 1" viewBox="0 0 1080 1080" width="1080" height="1080">
  <defs>
    <style>
      .cls-1 {
        fill: none;
      }

      .cls-2 {
        fill: #fff;
      }

      .cls-3 {
        fill: #fff;
      }
    </style>
  </defs>
  <g>
    <path class="cls-1" d="M253.76,516.24l223.81,92.71c.88-1.42,1.8-2.8,2.77-4.16l-171.27-171.27c-22.55,24.32-41.29,52.21-55.31,82.72Z"/>
    <path class="cls-1" d="M497.08,707.01l-19.07,19.07c4.63,1.87,9.31,3.82,14.03,5.88l9.18-22.16c-1.41-.88-2.8-1.81-4.14-2.78Z"/>
    <path class="cls-1" d="M467.61,659.48h-242.22c.62,16.46,2.5,32.6,5.55,48.32,38.39-12.99,89.66-20.4,153.96-9.03l83.62-34.64c-.36-1.53-.66-3.09-.92-4.65Z"/>
    <path class="cls-1" d="M477.57,686.05l-52.73,21.84c9.36,2.61,18.96,5.6,28.79,9.02l26.71-26.71c-.97-1.35-1.89-2.74-2.77-4.16Z"/>
    <path class="cls-1" d="M225.39,635.77h242.18c.27-1.65.58-3.29.96-4.9l-223.84-92.72c-11.33,30.58-18.05,63.4-19.3,97.62Z"/>
    <path class="cls-1" d="M770.76,433.33l-171.25,171.25c.97,1.35,1.9,2.73,2.78,4.14l223.84-92.72c-14.04-30.5-32.81-58.38-55.37-82.68Z"/>
    <path class="cls-1" d="M558.33,333.2v238.74l91.02-219.75c-28.61-10.6-59.18-17.16-91.02-18.99Z"/>
    <path class="cls-1" d="M611.41,630.62c.4,1.69.74,3.41,1.02,5.15h242.18c-1.26-34.3-8-67.21-19.39-97.86l-223.81,92.71Z"/>
    <path class="cls-1" d="M325.83,416.74l171.25,171.25c1.35-.97,2.73-1.9,4.14-2.78l-92.72-223.84c-30.5,14.04-58.38,32.81-82.68,55.37Z"/>
    <path class="cls-1" d="M521.67,572.59v-239.39c-31.93,1.83-62.58,8.42-91.26,19.07l91.26,220.32Z"/>
    <path class="cls-1" d="M611.41,664.38l223.81,92.71c11.35-30.58,18.1-63.39,19.38-97.61h-242.22c-.27,1.65-.6,3.29-.98,4.9Z"/>
    <path class="cls-1" d="M578.56,709.92l30.36,73.31c22.84,7.72,44.84,13.27,66.55,16.68l-92.76-92.76c-1.35.97-2.74,1.89-4.16,2.77Z"/>
    <path class="cls-1" d="M558.33,763.3c6.84,3.04,13.58,5.91,20.24,8.61l-20.24-48.86v40.25Z"/>
    <path class="cls-1" d="M671.26,361.26l-92.71,223.81c1.42.88,2.8,1.8,4.16,2.77l171.27-171.27c-24.32-22.55-52.21-41.29-82.72-55.31Z"/>
    <path class="cls-1" d="M602.29,686.27c-.88,1.41-1.81,2.8-2.78,4.14l113.27,113.27c34.74,1.55,69.61-2.4,107.02-11.73,2.21-4.27,4.32-8.59,6.34-12.97l-223.84-92.72Z"/>
    <path class="cls-1" d="M513.63,741.82c2.67,1.28,5.35,2.59,8.04,3.94v-23.35l-8.04,19.42Z"/>
    <path class="cls-3" d="M958.55,640.52c0-2.77-2.27-5.04-5.04-5.04h-10.04c-.57,0-1.13.1-1.64.28h-39.4c-1.3-40.78-9.33-79.86-23.01-116.16l33.18-13.74,14.77,35.65c1.06,2.56,4.02,3.78,6.58,2.72l9.28-3.84c2.56-1.06,3.78-4.02,2.72-6.58l-21.93-52.94c-1.06-2.56-4.02-3.78-6.58-2.72l-9.28,3.84c-.17.07-.34.15-.5.24l-37.34,15.46c-16.5-36.33-38.81-69.45-65.76-98.18l25.46-25.46,27.28,27.28c1.96,1.96,5.16,1.96,7.12,0l7.1-7.1c1.96-1.96,1.96-5.16,0-7.12l-40.51-40.51c-1.96-1.96-5.16-1.96-7.12,0l-7.1,7.1c-.13.13-.25.27-.37.41l-28.64,28.64c-28.75-26.92-61.89-49.22-98.23-65.69l13.75-33.19,35.65,14.77c2.56,1.06,5.52-.17,6.58-2.72l3.84-9.28c1.06-2.56-.17-5.52-2.72-6.58l-52.94-21.93c-2.56-1.06-5.52.17-6.58,2.72l-3.84,9.28c-.07.17-.13.35-.18.52l-15.46,37.33c-34.28-12.89-71.02-20.75-109.33-22.66v-69.07h40.77c2.77,0,5.04-2.27,5.04-5.04v-26.59c0-2.77-2.27-5.04-5.04-5.04h-40.77v-50.31c0-2.77-2.27-5.04-5.04-5.04h-26.59c-2.77,0-5.04,2.27-5.04,5.04v50.31h-40.77c-2.77,0-5.04,2.27-5.04,5.04v26.59c0,2.77,2.27,5.04,5.04,5.04h40.77v69.07c-38.4,1.91-75.22,9.8-109.56,22.74l-13.74-33.18,35.65-14.77c2.56-1.06,3.78-4.02,2.72-6.58l-3.84-9.28c-1.06-2.56-4.02-3.78-6.58-2.72l-52.94,21.93c-2.56,1.06-3.78,4.02-2.72,6.58l3.84,9.28c.07.17.15.34.24.5l15.46,37.34c-36.33,16.5-69.45,38.81-98.18,65.76l-25.46-25.46,27.28-27.28c1.96-1.96,1.96-5.16,0-7.12l-7.1-7.1c-1.96-1.96-5.16-1.96-7.12,0l-40.51,40.51c-1.96,1.96-1.96,5.16,0,7.12l7.1,7.1c.13.13.27.25.41.37l28.64,28.64c-26.92,28.75-49.22,61.89-65.69,98.23l-33.19-13.75,14.77-35.65c1.06-2.56-.17-5.52-2.72-6.58l-9.28-3.84c-2.56-1.06-5.52.17-6.58,2.72l-21.93,52.94c-1.06,2.56.17,5.52,2.72,6.58l9.28,3.84c.17.07.35.13.52.18l37.33,15.46c-13.63,36.24-21.63,75.24-22.92,115.93h-36s0-38.59,0-38.59c0-2.77-2.27-5.04-5.04-5.04h-10.04c-2.77,0-5.04,2.27-5.04,5.04v57.3c0,2.77,2.27,5.04,5.04,5.04h10.04c.19,0,.37-.01.55-.03h40.5c.76,23.43,3.75,46.3,8.75,68.4,12.18-7.02,27.05-14.13,44.62-20.08-3.05-15.72-4.94-31.86-5.55-48.32h242.22c.26,1.57.56,3.12.92,4.65l-83.62,34.64c12.8,2.26,26.11,5.27,39.94,9.12l52.73-21.84c.88,1.42,1.8,2.8,2.77,4.16l-26.71,26.71c7.97,2.77,16.1,5.82,24.38,9.16l19.07-19.07c1.35.97,2.73,1.9,4.14,2.78l-9.18,22.16c7.08,3.08,14.28,6.36,21.58,9.87l8.04-19.42v23.35c3.21,1.6,6.44,3.24,9.69,4.92,9.17,4.5,18.15,8.7,26.96,12.62v-40.25l20.24,48.86c10.31,4.18,20.41,7.95,30.35,11.31l-30.36-73.31c1.42-.88,2.8-1.8,4.16-2.77l92.76,92.76c12.49,1.96,24.89,3.22,37.31,3.77l-113.27-113.27c.97-1.35,1.9-2.73,2.78-4.14l223.84,92.72c-2.02,4.38-4.13,8.7-6.34,12.97,19.36-4.83,39.4-11.09,60.45-18.79,13.15-35.6,20.88-73.83,22.18-113.69h36.01v38.34c0,2.77,2.27,5.04,5.04,5.04h10.04c2.77,0,5.04-2.27,5.04-5.04v-57.3ZM467.57,635.77h-242.18c1.25-34.22,7.97-67.04,19.3-97.62l223.84,92.72c-.37,1.61-.69,3.25-.96,4.9ZM477.57,608.94l-223.81-92.71c14.02-30.51,32.76-58.4,55.31-82.72l171.27,171.27c-.97,1.35-1.89,2.74-2.77,4.16ZM497.08,587.99l-171.25-171.25c24.3-22.57,52.18-41.34,82.68-55.37l92.72,223.84c-1.41.88-2.8,1.81-4.14,2.78ZM521.67,572.59l-91.26-220.32c28.68-10.65,59.33-17.24,91.26-19.07v239.39ZM558.33,571.94v-238.74c31.84,1.83,62.41,8.39,91.02,18.99l-91.02,219.75ZM582.71,587.84c-1.35-.97-2.74-1.89-4.16-2.77l92.71-223.81c30.51,14.02,58.4,32.76,82.72,55.31l-171.27,171.27ZM602.29,608.73c-.88-1.41-1.81-2.8-2.78-4.14l171.25-171.25c22.57,24.3,41.34,52.18,55.37,82.68l-223.84,92.72ZM835.23,757.09l-223.81-92.71c.38-1.61.7-3.25.98-4.9h242.22c-1.28,34.21-8.02,67.03-19.38,97.61ZM612.43,635.77c-.28-1.74-.62-3.45-1.02-5.15l223.81-92.71c11.38,30.65,18.13,63.55,19.39,97.86h-242.18Z"/>
  </g>
  <path class="cls-2" d="M944.8,786.79c0,.63-.4,1.45-.89,1.82-30.39,22.96-61.07,43.66-95.08,59.28-26.75,12.49-55.85,21.14-84.94,26.38-61.32,11.73-124.94,7.63-184.75-9.32-40.39-11.08-78.63-27.98-116.24-46.73-34.67-17.03-68.03-36.81-104.81-48.8-76.16-25.01-143.1-7.47-211.71,31.04-16.92,9.04-11.83,1.54-3.1-6.96,5.04-4.88,10.42-9.4,15.94-13.7,28.65-22.16,61.39-39.36,95.14-47.66,63.94-14.4,132.91-.09,192.86,25.02,51.45,21.52,101.18,49.14,154.41,65.1,58.32,16.81,120.82,19.69,180.98,12.23,55.32-8.12,108.61-28.47,160.43-48.98.85-.34,1.75.32,1.75,1.27h0Z"/>
  <path class="cls-2" d="M933.44,833.6c.3-.5-.41-1.33-1.13-.79-4.81,3.61-44.98,32.91-83.48,48.98-27.24,11.37-55.85,21.14-84.94,26.38-61.32,11.73-124.94,7.63-184.75-9.32-40.39-11.08-78.63-27.98-116.24-46.73-34.67-17.03-83.2-41.4-119.97-53.39-74.43-24.44-143.24-6.43-199.17,40.87-1.42,1.2.01,3.44,1.69,2.66,31.56-14.7,99.68-45.37,201.51.56,64.46,29.07,157.93,80.85,211.37,96.07,173.33,49.36,322.04-16.94,375.12-105.28Z"/>
</svg>
